<mxfile host="app.diagrams.net" agent="Mozilla/5.0 (Windows NT 10.0; Win64; x64) AppleWebKit/537.36 (KHTML, like Gecko) Chrome/131.0.0.0 Safari/537.36" version="24.9.3">
  <diagram name="Page-1" id="YIirqU8vA0ya2U5a2BMj">
    <mxGraphModel grid="1" page="1" gridSize="10" guides="1" tooltips="1" connect="1" arrows="1" fold="1" pageScale="1" pageWidth="850" pageHeight="1100" math="0" shadow="0">
      <root>
        <mxCell id="0" />
        <mxCell id="1" parent="0" />
        <mxCell id="NmSjLMG6qjfpHUq6LV9r-1" value="User" style="swimlane;fontStyle=0;childLayout=stackLayout;horizontal=1;startSize=26;horizontalStack=0;resizeParent=1;resizeParentMax=0;resizeLast=0;collapsible=1;marginBottom=0;align=center;fontSize=14;" vertex="1" parent="1">
          <mxGeometry x="-85" y="1420" width="160" height="326" as="geometry" />
        </mxCell>
        <mxCell id="NmSjLMG6qjfpHUq6LV9r-2" value="*user_id" style="text;strokeColor=none;fillColor=none;spacingLeft=4;spacingRight=4;overflow=hidden;rotatable=0;points=[[0,0.5],[1,0.5]];portConstraint=eastwest;fontSize=12;whiteSpace=wrap;html=1;" vertex="1" parent="NmSjLMG6qjfpHUq6LV9r-1">
          <mxGeometry y="26" width="160" height="30" as="geometry" />
        </mxCell>
        <mxCell id="NmSjLMG6qjfpHUq6LV9r-3" value="username" style="text;strokeColor=none;fillColor=none;spacingLeft=4;spacingRight=4;overflow=hidden;rotatable=0;points=[[0,0.5],[1,0.5]];portConstraint=eastwest;fontSize=12;whiteSpace=wrap;html=1;" vertex="1" parent="NmSjLMG6qjfpHUq6LV9r-1">
          <mxGeometry y="56" width="160" height="30" as="geometry" />
        </mxCell>
        <mxCell id="NmSjLMG6qjfpHUq6LV9r-4" value="password" style="text;strokeColor=none;fillColor=none;spacingLeft=4;spacingRight=4;overflow=hidden;rotatable=0;points=[[0,0.5],[1,0.5]];portConstraint=eastwest;fontSize=12;whiteSpace=wrap;html=1;" vertex="1" parent="NmSjLMG6qjfpHUq6LV9r-1">
          <mxGeometry y="86" width="160" height="30" as="geometry" />
        </mxCell>
        <mxCell id="NmSjLMG6qjfpHUq6LV9r-5" value="email" style="text;strokeColor=none;fillColor=none;spacingLeft=4;spacingRight=4;overflow=hidden;rotatable=0;points=[[0,0.5],[1,0.5]];portConstraint=eastwest;fontSize=12;whiteSpace=wrap;html=1;" vertex="1" parent="NmSjLMG6qjfpHUq6LV9r-1">
          <mxGeometry y="116" width="160" height="30" as="geometry" />
        </mxCell>
        <mxCell id="NmSjLMG6qjfpHUq6LV9r-6" value="&lt;span style=&quot;text-wrap-mode: nowrap;&quot;&gt;birthdate&lt;/span&gt;" style="text;strokeColor=none;fillColor=none;spacingLeft=4;spacingRight=4;overflow=hidden;rotatable=0;points=[[0,0.5],[1,0.5]];portConstraint=eastwest;fontSize=12;whiteSpace=wrap;html=1;" vertex="1" parent="NmSjLMG6qjfpHUq6LV9r-1">
          <mxGeometry y="146" width="160" height="30" as="geometry" />
        </mxCell>
        <mxCell id="NmSjLMG6qjfpHUq6LV9r-7" value="picture_url" style="text;strokeColor=none;fillColor=none;spacingLeft=4;spacingRight=4;overflow=hidden;rotatable=0;points=[[0,0.5],[1,0.5]];portConstraint=eastwest;fontSize=12;whiteSpace=wrap;html=1;" vertex="1" parent="NmSjLMG6qjfpHUq6LV9r-1">
          <mxGeometry y="176" width="160" height="30" as="geometry" />
        </mxCell>
        <mxCell id="NmSjLMG6qjfpHUq6LV9r-8" value="phone" style="text;strokeColor=none;fillColor=none;spacingLeft=4;spacingRight=4;overflow=hidden;rotatable=0;points=[[0,0.5],[1,0.5]];portConstraint=eastwest;fontSize=12;whiteSpace=wrap;html=1;" vertex="1" parent="NmSjLMG6qjfpHUq6LV9r-1">
          <mxGeometry y="206" width="160" height="30" as="geometry" />
        </mxCell>
        <mxCell id="NmSjLMG6qjfpHUq6LV9r-9" value="karma" style="text;strokeColor=none;fillColor=none;spacingLeft=4;spacingRight=4;overflow=hidden;rotatable=0;points=[[0,0.5],[1,0.5]];portConstraint=eastwest;fontSize=12;whiteSpace=wrap;html=1;" vertex="1" parent="NmSjLMG6qjfpHUq6LV9r-1">
          <mxGeometry y="236" width="160" height="30" as="geometry" />
        </mxCell>
        <mxCell id="NmSjLMG6qjfpHUq6LV9r-10" value="is_admin" style="text;strokeColor=none;fillColor=none;spacingLeft=4;spacingRight=4;overflow=hidden;rotatable=0;points=[[0,0.5],[1,0.5]];portConstraint=eastwest;fontSize=12;whiteSpace=wrap;html=1;" vertex="1" parent="NmSjLMG6qjfpHUq6LV9r-1">
          <mxGeometry y="266" width="160" height="30" as="geometry" />
        </mxCell>
        <mxCell id="NmSjLMG6qjfpHUq6LV9r-11" value="country_id" style="text;strokeColor=none;fillColor=none;spacingLeft=4;spacingRight=4;overflow=hidden;rotatable=0;points=[[0,0.5],[1,0.5]];portConstraint=eastwest;fontSize=12;whiteSpace=wrap;html=1;" vertex="1" parent="NmSjLMG6qjfpHUq6LV9r-1">
          <mxGeometry y="296" width="160" height="30" as="geometry" />
        </mxCell>
        <mxCell id="NmSjLMG6qjfpHUq6LV9r-12" value="Post" style="swimlane;fontStyle=0;childLayout=stackLayout;horizontal=1;startSize=26;horizontalStack=0;resizeParent=1;resizeParentMax=0;resizeLast=0;collapsible=1;marginBottom=0;align=center;fontSize=14;" vertex="1" parent="1">
          <mxGeometry x="863" y="1240" width="160" height="266" as="geometry" />
        </mxCell>
        <mxCell id="NmSjLMG6qjfpHUq6LV9r-13" value="*post_id" style="text;strokeColor=none;fillColor=none;spacingLeft=4;spacingRight=4;overflow=hidden;rotatable=0;points=[[0,0.5],[1,0.5]];portConstraint=eastwest;fontSize=12;whiteSpace=wrap;html=1;" vertex="1" parent="NmSjLMG6qjfpHUq6LV9r-12">
          <mxGeometry y="26" width="160" height="30" as="geometry" />
        </mxCell>
        <mxCell id="NmSjLMG6qjfpHUq6LV9r-14" value="title" style="text;strokeColor=none;fillColor=none;spacingLeft=4;spacingRight=4;overflow=hidden;rotatable=0;points=[[0,0.5],[1,0.5]];portConstraint=eastwest;fontSize=12;whiteSpace=wrap;html=1;" vertex="1" parent="NmSjLMG6qjfpHUq6LV9r-12">
          <mxGeometry y="56" width="160" height="30" as="geometry" />
        </mxCell>
        <mxCell id="NmSjLMG6qjfpHUq6LV9r-15" value="text" style="text;strokeColor=none;fillColor=none;spacingLeft=4;spacingRight=4;overflow=hidden;rotatable=0;points=[[0,0.5],[1,0.5]];portConstraint=eastwest;fontSize=12;whiteSpace=wrap;html=1;" vertex="1" parent="NmSjLMG6qjfpHUq6LV9r-12">
          <mxGeometry y="86" width="160" height="30" as="geometry" />
        </mxCell>
        <mxCell id="NmSjLMG6qjfpHUq6LV9r-16" value="resource_url" style="text;strokeColor=none;fillColor=none;spacingLeft=4;spacingRight=4;overflow=hidden;rotatable=0;points=[[0,0.5],[1,0.5]];portConstraint=eastwest;fontSize=12;whiteSpace=wrap;html=1;" vertex="1" parent="NmSjLMG6qjfpHUq6LV9r-12">
          <mxGeometry y="116" width="160" height="30" as="geometry" />
        </mxCell>
        <mxCell id="NmSjLMG6qjfpHUq6LV9r-17" value="created_at" style="text;strokeColor=none;fillColor=none;spacingLeft=4;spacingRight=4;overflow=hidden;rotatable=0;points=[[0,0.5],[1,0.5]];portConstraint=eastwest;fontSize=12;whiteSpace=wrap;html=1;" vertex="1" parent="NmSjLMG6qjfpHUq6LV9r-12">
          <mxGeometry y="146" width="160" height="30" as="geometry" />
        </mxCell>
        <mxCell id="NmSjLMG6qjfpHUq6LV9r-18" value="&lt;span style=&quot;text-wrap-mode: nowrap;&quot;&gt;edited&lt;/span&gt;_at" style="text;strokeColor=none;fillColor=none;spacingLeft=4;spacingRight=4;overflow=hidden;rotatable=0;points=[[0,0.5],[1,0.5]];portConstraint=eastwest;fontSize=12;whiteSpace=wrap;html=1;" vertex="1" parent="NmSjLMG6qjfpHUq6LV9r-12">
          <mxGeometry y="176" width="160" height="30" as="geometry" />
        </mxCell>
        <mxCell id="NmSjLMG6qjfpHUq6LV9r-19" value="&lt;span style=&quot;text-wrap-mode: nowrap;&quot;&gt;user&lt;/span&gt;_id" style="text;strokeColor=none;fillColor=none;spacingLeft=4;spacingRight=4;overflow=hidden;rotatable=0;points=[[0,0.5],[1,0.5]];portConstraint=eastwest;fontSize=12;whiteSpace=wrap;html=1;" vertex="1" parent="NmSjLMG6qjfpHUq6LV9r-12">
          <mxGeometry y="206" width="160" height="30" as="geometry" />
        </mxCell>
        <mxCell id="NmSjLMG6qjfpHUq6LV9r-20" value="&lt;span style=&quot;text-wrap-mode: nowrap;&quot;&gt;subreddit&lt;/span&gt;_id" style="text;strokeColor=none;fillColor=none;spacingLeft=4;spacingRight=4;overflow=hidden;rotatable=0;points=[[0,0.5],[1,0.5]];portConstraint=eastwest;fontSize=12;whiteSpace=wrap;html=1;" vertex="1" parent="NmSjLMG6qjfpHUq6LV9r-12">
          <mxGeometry y="236" width="160" height="30" as="geometry" />
        </mxCell>
        <mxCell id="NmSjLMG6qjfpHUq6LV9r-21" value="Subreddit" style="swimlane;fontStyle=0;childLayout=stackLayout;horizontal=1;startSize=26;horizontalStack=0;resizeParent=1;resizeParentMax=0;resizeLast=0;collapsible=1;marginBottom=0;align=center;fontSize=14;" vertex="1" parent="1">
          <mxGeometry x="395" y="1040" width="160" height="266" as="geometry" />
        </mxCell>
        <mxCell id="NmSjLMG6qjfpHUq6LV9r-22" value="*subreddit_id" style="text;strokeColor=none;fillColor=none;spacingLeft=4;spacingRight=4;overflow=hidden;rotatable=0;points=[[0,0.5],[1,0.5]];portConstraint=eastwest;fontSize=12;whiteSpace=wrap;html=1;" vertex="1" parent="NmSjLMG6qjfpHUq6LV9r-21">
          <mxGeometry y="26" width="160" height="30" as="geometry" />
        </mxCell>
        <mxCell id="NmSjLMG6qjfpHUq6LV9r-23" value="title" style="text;strokeColor=none;fillColor=none;spacingLeft=4;spacingRight=4;overflow=hidden;rotatable=0;points=[[0,0.5],[1,0.5]];portConstraint=eastwest;fontSize=12;whiteSpace=wrap;html=1;" vertex="1" parent="NmSjLMG6qjfpHUq6LV9r-21">
          <mxGeometry y="56" width="160" height="30" as="geometry" />
        </mxCell>
        <mxCell id="NmSjLMG6qjfpHUq6LV9r-24" value="description" style="text;strokeColor=none;fillColor=none;spacingLeft=4;spacingRight=4;overflow=hidden;rotatable=0;points=[[0,0.5],[1,0.5]];portConstraint=eastwest;fontSize=12;whiteSpace=wrap;html=1;" vertex="1" parent="NmSjLMG6qjfpHUq6LV9r-21">
          <mxGeometry y="86" width="160" height="30" as="geometry" />
        </mxCell>
        <mxCell id="NmSjLMG6qjfpHUq6LV9r-25" value="created_at" style="text;strokeColor=none;fillColor=none;spacingLeft=4;spacingRight=4;overflow=hidden;rotatable=0;points=[[0,0.5],[1,0.5]];portConstraint=eastwest;fontSize=12;whiteSpace=wrap;html=1;" vertex="1" parent="NmSjLMG6qjfpHUq6LV9r-21">
          <mxGeometry y="116" width="160" height="30" as="geometry" />
        </mxCell>
        <mxCell id="NmSjLMG6qjfpHUq6LV9r-26" value="&lt;span style=&quot;text-wrap-mode: nowrap;&quot;&gt;rules&lt;/span&gt;" style="text;strokeColor=none;fillColor=none;spacingLeft=4;spacingRight=4;overflow=hidden;rotatable=0;points=[[0,0.5],[1,0.5]];portConstraint=eastwest;fontSize=12;whiteSpace=wrap;html=1;" vertex="1" parent="NmSjLMG6qjfpHUq6LV9r-21">
          <mxGeometry y="146" width="160" height="30" as="geometry" />
        </mxCell>
        <mxCell id="NmSjLMG6qjfpHUq6LV9r-27" value="&lt;span style=&quot;text-wrap-mode: nowrap;&quot;&gt;picture_url&lt;/span&gt;" style="text;strokeColor=none;fillColor=none;spacingLeft=4;spacingRight=4;overflow=hidden;rotatable=0;points=[[0,0.5],[1,0.5]];portConstraint=eastwest;fontSize=12;whiteSpace=wrap;html=1;" vertex="1" parent="NmSjLMG6qjfpHUq6LV9r-21">
          <mxGeometry y="176" width="160" height="30" as="geometry" />
        </mxCell>
        <mxCell id="NmSjLMG6qjfpHUq6LV9r-28" value="&lt;span style=&quot;text-wrap-mode: nowrap;&quot;&gt;banner_url&lt;/span&gt;" style="text;strokeColor=none;fillColor=none;spacingLeft=4;spacingRight=4;overflow=hidden;rotatable=0;points=[[0,0.5],[1,0.5]];portConstraint=eastwest;fontSize=12;whiteSpace=wrap;html=1;" vertex="1" parent="NmSjLMG6qjfpHUq6LV9r-21">
          <mxGeometry y="206" width="160" height="30" as="geometry" />
        </mxCell>
        <mxCell id="NmSjLMG6qjfpHUq6LV9r-29" value="&lt;span style=&quot;text-wrap-mode: nowrap;&quot;&gt;user_id&lt;/span&gt;" style="text;strokeColor=none;fillColor=none;spacingLeft=4;spacingRight=4;overflow=hidden;rotatable=0;points=[[0,0.5],[1,0.5]];portConstraint=eastwest;fontSize=12;whiteSpace=wrap;html=1;" vertex="1" parent="NmSjLMG6qjfpHUq6LV9r-21">
          <mxGeometry y="236" width="160" height="30" as="geometry" />
        </mxCell>
        <mxCell id="NmSjLMG6qjfpHUq6LV9r-30" value="Comment" style="swimlane;fontStyle=0;childLayout=stackLayout;horizontal=1;startSize=26;horizontalStack=0;resizeParent=1;resizeParentMax=0;resizeLast=0;collapsible=1;marginBottom=0;align=center;fontSize=14;" vertex="1" parent="1">
          <mxGeometry x="855" y="1860" width="160" height="236" as="geometry" />
        </mxCell>
        <mxCell id="NmSjLMG6qjfpHUq6LV9r-31" value="*comment_id" style="text;strokeColor=none;fillColor=none;spacingLeft=4;spacingRight=4;overflow=hidden;rotatable=0;points=[[0,0.5],[1,0.5]];portConstraint=eastwest;fontSize=12;whiteSpace=wrap;html=1;" vertex="1" parent="NmSjLMG6qjfpHUq6LV9r-30">
          <mxGeometry y="26" width="160" height="30" as="geometry" />
        </mxCell>
        <mxCell id="NmSjLMG6qjfpHUq6LV9r-32" value="text" style="text;strokeColor=none;fillColor=none;spacingLeft=4;spacingRight=4;overflow=hidden;rotatable=0;points=[[0,0.5],[1,0.5]];portConstraint=eastwest;fontSize=12;whiteSpace=wrap;html=1;" vertex="1" parent="NmSjLMG6qjfpHUq6LV9r-30">
          <mxGeometry y="56" width="160" height="30" as="geometry" />
        </mxCell>
        <mxCell id="NmSjLMG6qjfpHUq6LV9r-33" value="created_at" style="text;strokeColor=none;fillColor=none;spacingLeft=4;spacingRight=4;overflow=hidden;rotatable=0;points=[[0,0.5],[1,0.5]];portConstraint=eastwest;fontSize=12;whiteSpace=wrap;html=1;" vertex="1" parent="NmSjLMG6qjfpHUq6LV9r-30">
          <mxGeometry y="86" width="160" height="30" as="geometry" />
        </mxCell>
        <mxCell id="NmSjLMG6qjfpHUq6LV9r-34" value="&lt;span style=&quot;text-wrap-mode: nowrap;&quot;&gt;edited&lt;/span&gt;_at" style="text;strokeColor=none;fillColor=none;spacingLeft=4;spacingRight=4;overflow=hidden;rotatable=0;points=[[0,0.5],[1,0.5]];portConstraint=eastwest;fontSize=12;whiteSpace=wrap;html=1;" vertex="1" parent="NmSjLMG6qjfpHUq6LV9r-30">
          <mxGeometry y="116" width="160" height="30" as="geometry" />
        </mxCell>
        <mxCell id="NmSjLMG6qjfpHUq6LV9r-35" value="&lt;span style=&quot;text-wrap-mode: nowrap;&quot;&gt;user_id&lt;/span&gt;" style="text;strokeColor=none;fillColor=none;spacingLeft=4;spacingRight=4;overflow=hidden;rotatable=0;points=[[0,0.5],[1,0.5]];portConstraint=eastwest;fontSize=12;whiteSpace=wrap;html=1;" vertex="1" parent="NmSjLMG6qjfpHUq6LV9r-30">
          <mxGeometry y="146" width="160" height="30" as="geometry" />
        </mxCell>
        <mxCell id="NmSjLMG6qjfpHUq6LV9r-36" style="edgeStyle=orthogonalEdgeStyle;rounded=0;orthogonalLoop=1;jettySize=auto;html=1;exitX=1;exitY=0.5;exitDx=0;exitDy=0;startArrow=ERmandOne;startFill=0;endArrow=ERzeroToMany;endFill=0;entryX=0.462;entryY=1.004;entryDx=0;entryDy=0;entryPerimeter=0;" edge="1" parent="NmSjLMG6qjfpHUq6LV9r-30" source="NmSjLMG6qjfpHUq6LV9r-34" target="NmSjLMG6qjfpHUq6LV9r-38">
          <mxGeometry relative="1" as="geometry">
            <mxPoint x="74" y="250" as="targetPoint" />
            <Array as="points">
              <mxPoint x="230" y="131" />
              <mxPoint x="230" y="300" />
              <mxPoint x="74" y="300" />
            </Array>
          </mxGeometry>
        </mxCell>
        <mxCell id="NmSjLMG6qjfpHUq6LV9r-37" value="&lt;span style=&quot;text-wrap-mode: nowrap;&quot;&gt;post_id&lt;/span&gt;" style="text;strokeColor=none;fillColor=none;spacingLeft=4;spacingRight=4;overflow=hidden;rotatable=0;points=[[0,0.5],[1,0.5]];portConstraint=eastwest;fontSize=12;whiteSpace=wrap;html=1;" vertex="1" parent="NmSjLMG6qjfpHUq6LV9r-30">
          <mxGeometry y="176" width="160" height="30" as="geometry" />
        </mxCell>
        <mxCell id="NmSjLMG6qjfpHUq6LV9r-38" value="&lt;span style=&quot;text-wrap-mode: nowrap;&quot;&gt;parent_comment_id&lt;/span&gt;" style="text;strokeColor=none;fillColor=none;spacingLeft=4;spacingRight=4;overflow=hidden;rotatable=0;points=[[0,0.5],[1,0.5]];portConstraint=eastwest;fontSize=12;whiteSpace=wrap;html=1;" vertex="1" parent="NmSjLMG6qjfpHUq6LV9r-30">
          <mxGeometry y="206" width="160" height="30" as="geometry" />
        </mxCell>
        <mxCell id="NmSjLMG6qjfpHUq6LV9r-39" value="Post Vote" style="swimlane;fontStyle=0;childLayout=stackLayout;horizontal=1;startSize=26;horizontalStack=0;resizeParent=1;resizeParentMax=0;resizeLast=0;collapsible=1;marginBottom=0;align=center;fontSize=14;" vertex="1" parent="1">
          <mxGeometry x="395" y="1320" width="160" height="206" as="geometry" />
        </mxCell>
        <mxCell id="NmSjLMG6qjfpHUq6LV9r-40" value="*vote_id" style="text;strokeColor=none;fillColor=none;spacingLeft=4;spacingRight=4;overflow=hidden;rotatable=0;points=[[0,0.5],[1,0.5]];portConstraint=eastwest;fontSize=12;whiteSpace=wrap;html=1;" vertex="1" parent="NmSjLMG6qjfpHUq6LV9r-39">
          <mxGeometry y="26" width="160" height="30" as="geometry" />
        </mxCell>
        <mxCell id="NmSjLMG6qjfpHUq6LV9r-41" value="vote_type" style="text;strokeColor=none;fillColor=none;spacingLeft=4;spacingRight=4;overflow=hidden;rotatable=0;points=[[0,0.5],[1,0.5]];portConstraint=eastwest;fontSize=12;whiteSpace=wrap;html=1;" vertex="1" parent="NmSjLMG6qjfpHUq6LV9r-39">
          <mxGeometry y="56" width="160" height="30" as="geometry" />
        </mxCell>
        <mxCell id="NmSjLMG6qjfpHUq6LV9r-42" value="created_at" style="text;strokeColor=none;fillColor=none;spacingLeft=4;spacingRight=4;overflow=hidden;rotatable=0;points=[[0,0.5],[1,0.5]];portConstraint=eastwest;fontSize=12;whiteSpace=wrap;html=1;" vertex="1" parent="NmSjLMG6qjfpHUq6LV9r-39">
          <mxGeometry y="86" width="160" height="30" as="geometry" />
        </mxCell>
        <mxCell id="NmSjLMG6qjfpHUq6LV9r-43" value="&lt;span style=&quot;text-wrap-mode: nowrap;&quot;&gt;edited&lt;/span&gt;_at" style="text;strokeColor=none;fillColor=none;spacingLeft=4;spacingRight=4;overflow=hidden;rotatable=0;points=[[0,0.5],[1,0.5]];portConstraint=eastwest;fontSize=12;whiteSpace=wrap;html=1;" vertex="1" parent="NmSjLMG6qjfpHUq6LV9r-39">
          <mxGeometry y="116" width="160" height="30" as="geometry" />
        </mxCell>
        <mxCell id="NmSjLMG6qjfpHUq6LV9r-44" value="&lt;span style=&quot;text-wrap-mode: nowrap;&quot;&gt;user_id&lt;/span&gt;" style="text;strokeColor=none;fillColor=none;spacingLeft=4;spacingRight=4;overflow=hidden;rotatable=0;points=[[0,0.5],[1,0.5]];portConstraint=eastwest;fontSize=12;whiteSpace=wrap;html=1;" vertex="1" parent="NmSjLMG6qjfpHUq6LV9r-39">
          <mxGeometry y="146" width="160" height="30" as="geometry" />
        </mxCell>
        <mxCell id="NmSjLMG6qjfpHUq6LV9r-45" value="&lt;span style=&quot;text-wrap-mode: nowrap;&quot;&gt;post_id&lt;/span&gt;" style="text;strokeColor=none;fillColor=none;spacingLeft=4;spacingRight=4;overflow=hidden;rotatable=0;points=[[0,0.5],[1,0.5]];portConstraint=eastwest;fontSize=12;whiteSpace=wrap;html=1;" vertex="1" parent="NmSjLMG6qjfpHUq6LV9r-39">
          <mxGeometry y="176" width="160" height="30" as="geometry" />
        </mxCell>
        <mxCell id="NmSjLMG6qjfpHUq6LV9r-46" value="Comment Vote" style="swimlane;fontStyle=0;childLayout=stackLayout;horizontal=1;startSize=26;horizontalStack=0;resizeParent=1;resizeParentMax=0;resizeLast=0;collapsible=1;marginBottom=0;align=center;fontSize=14;" vertex="1" parent="1">
          <mxGeometry x="395" y="1940" width="160" height="206" as="geometry" />
        </mxCell>
        <mxCell id="NmSjLMG6qjfpHUq6LV9r-47" value="*vote_id" style="text;strokeColor=none;fillColor=none;spacingLeft=4;spacingRight=4;overflow=hidden;rotatable=0;points=[[0,0.5],[1,0.5]];portConstraint=eastwest;fontSize=12;whiteSpace=wrap;html=1;" vertex="1" parent="NmSjLMG6qjfpHUq6LV9r-46">
          <mxGeometry y="26" width="160" height="30" as="geometry" />
        </mxCell>
        <mxCell id="NmSjLMG6qjfpHUq6LV9r-48" value="vote_type" style="text;strokeColor=none;fillColor=none;spacingLeft=4;spacingRight=4;overflow=hidden;rotatable=0;points=[[0,0.5],[1,0.5]];portConstraint=eastwest;fontSize=12;whiteSpace=wrap;html=1;" vertex="1" parent="NmSjLMG6qjfpHUq6LV9r-46">
          <mxGeometry y="56" width="160" height="30" as="geometry" />
        </mxCell>
        <mxCell id="NmSjLMG6qjfpHUq6LV9r-49" value="created_at" style="text;strokeColor=none;fillColor=none;spacingLeft=4;spacingRight=4;overflow=hidden;rotatable=0;points=[[0,0.5],[1,0.5]];portConstraint=eastwest;fontSize=12;whiteSpace=wrap;html=1;" vertex="1" parent="NmSjLMG6qjfpHUq6LV9r-46">
          <mxGeometry y="86" width="160" height="30" as="geometry" />
        </mxCell>
        <mxCell id="NmSjLMG6qjfpHUq6LV9r-50" value="&lt;span style=&quot;text-wrap-mode: nowrap;&quot;&gt;edited&lt;/span&gt;_at" style="text;strokeColor=none;fillColor=none;spacingLeft=4;spacingRight=4;overflow=hidden;rotatable=0;points=[[0,0.5],[1,0.5]];portConstraint=eastwest;fontSize=12;whiteSpace=wrap;html=1;" vertex="1" parent="NmSjLMG6qjfpHUq6LV9r-46">
          <mxGeometry y="116" width="160" height="30" as="geometry" />
        </mxCell>
        <mxCell id="NmSjLMG6qjfpHUq6LV9r-51" value="&lt;span style=&quot;text-wrap-mode: nowrap;&quot;&gt;user_id&lt;/span&gt;" style="text;strokeColor=none;fillColor=none;spacingLeft=4;spacingRight=4;overflow=hidden;rotatable=0;points=[[0,0.5],[1,0.5]];portConstraint=eastwest;fontSize=12;whiteSpace=wrap;html=1;" vertex="1" parent="NmSjLMG6qjfpHUq6LV9r-46">
          <mxGeometry y="146" width="160" height="30" as="geometry" />
        </mxCell>
        <mxCell id="NmSjLMG6qjfpHUq6LV9r-52" value="&lt;span style=&quot;text-wrap-mode: nowrap;&quot;&gt;comment_id&lt;/span&gt;" style="text;strokeColor=none;fillColor=none;spacingLeft=4;spacingRight=4;overflow=hidden;rotatable=0;points=[[0,0.5],[1,0.5]];portConstraint=eastwest;fontSize=12;whiteSpace=wrap;html=1;" vertex="1" parent="NmSjLMG6qjfpHUq6LV9r-46">
          <mxGeometry y="176" width="160" height="30" as="geometry" />
        </mxCell>
        <mxCell id="NmSjLMG6qjfpHUq6LV9r-53" value="Post Award" style="swimlane;fontStyle=0;childLayout=stackLayout;horizontal=1;startSize=26;horizontalStack=0;resizeParent=1;resizeParentMax=0;resizeLast=0;collapsible=1;marginBottom=0;align=center;fontSize=14;" vertex="1" parent="1">
          <mxGeometry x="395" y="1550" width="160" height="176" as="geometry" />
        </mxCell>
        <mxCell id="NmSjLMG6qjfpHUq6LV9r-54" value="*award_id" style="text;strokeColor=none;fillColor=none;spacingLeft=4;spacingRight=4;overflow=hidden;rotatable=0;points=[[0,0.5],[1,0.5]];portConstraint=eastwest;fontSize=12;whiteSpace=wrap;html=1;" vertex="1" parent="NmSjLMG6qjfpHUq6LV9r-53">
          <mxGeometry y="26" width="160" height="30" as="geometry" />
        </mxCell>
        <mxCell id="NmSjLMG6qjfpHUq6LV9r-55" value="award_type_id" style="text;strokeColor=none;fillColor=none;spacingLeft=4;spacingRight=4;overflow=hidden;rotatable=0;points=[[0,0.5],[1,0.5]];portConstraint=eastwest;fontSize=12;whiteSpace=wrap;html=1;" vertex="1" parent="NmSjLMG6qjfpHUq6LV9r-53">
          <mxGeometry y="56" width="160" height="30" as="geometry" />
        </mxCell>
        <mxCell id="NmSjLMG6qjfpHUq6LV9r-56" value="created_at" style="text;strokeColor=none;fillColor=none;spacingLeft=4;spacingRight=4;overflow=hidden;rotatable=0;points=[[0,0.5],[1,0.5]];portConstraint=eastwest;fontSize=12;whiteSpace=wrap;html=1;" vertex="1" parent="NmSjLMG6qjfpHUq6LV9r-53">
          <mxGeometry y="86" width="160" height="30" as="geometry" />
        </mxCell>
        <mxCell id="NmSjLMG6qjfpHUq6LV9r-57" value="user_id" style="text;strokeColor=none;fillColor=none;spacingLeft=4;spacingRight=4;overflow=hidden;rotatable=0;points=[[0,0.5],[1,0.5]];portConstraint=eastwest;fontSize=12;whiteSpace=wrap;html=1;" vertex="1" parent="NmSjLMG6qjfpHUq6LV9r-53">
          <mxGeometry y="116" width="160" height="30" as="geometry" />
        </mxCell>
        <mxCell id="NmSjLMG6qjfpHUq6LV9r-58" value="post_id" style="text;strokeColor=none;fillColor=none;spacingLeft=4;spacingRight=4;overflow=hidden;rotatable=0;points=[[0,0.5],[1,0.5]];portConstraint=eastwest;fontSize=12;whiteSpace=wrap;html=1;" vertex="1" parent="NmSjLMG6qjfpHUq6LV9r-53">
          <mxGeometry y="146" width="160" height="30" as="geometry" />
        </mxCell>
        <mxCell id="NmSjLMG6qjfpHUq6LV9r-59" value="Comment Award" style="swimlane;fontStyle=0;childLayout=stackLayout;horizontal=1;startSize=26;horizontalStack=0;resizeParent=1;resizeParentMax=0;resizeLast=0;collapsible=1;marginBottom=0;align=center;fontSize=14;" vertex="1" parent="1">
          <mxGeometry x="395" y="1746" width="160" height="176" as="geometry" />
        </mxCell>
        <mxCell id="NmSjLMG6qjfpHUq6LV9r-60" value="*award_id" style="text;strokeColor=none;fillColor=none;spacingLeft=4;spacingRight=4;overflow=hidden;rotatable=0;points=[[0,0.5],[1,0.5]];portConstraint=eastwest;fontSize=12;whiteSpace=wrap;html=1;" vertex="1" parent="NmSjLMG6qjfpHUq6LV9r-59">
          <mxGeometry y="26" width="160" height="30" as="geometry" />
        </mxCell>
        <mxCell id="NmSjLMG6qjfpHUq6LV9r-61" value="award_type_id" style="text;strokeColor=none;fillColor=none;spacingLeft=4;spacingRight=4;overflow=hidden;rotatable=0;points=[[0,0.5],[1,0.5]];portConstraint=eastwest;fontSize=12;whiteSpace=wrap;html=1;" vertex="1" parent="NmSjLMG6qjfpHUq6LV9r-59">
          <mxGeometry y="56" width="160" height="30" as="geometry" />
        </mxCell>
        <mxCell id="NmSjLMG6qjfpHUq6LV9r-62" value="created_at" style="text;strokeColor=none;fillColor=none;spacingLeft=4;spacingRight=4;overflow=hidden;rotatable=0;points=[[0,0.5],[1,0.5]];portConstraint=eastwest;fontSize=12;whiteSpace=wrap;html=1;" vertex="1" parent="NmSjLMG6qjfpHUq6LV9r-59">
          <mxGeometry y="86" width="160" height="30" as="geometry" />
        </mxCell>
        <mxCell id="NmSjLMG6qjfpHUq6LV9r-63" value="user_id" style="text;strokeColor=none;fillColor=none;spacingLeft=4;spacingRight=4;overflow=hidden;rotatable=0;points=[[0,0.5],[1,0.5]];portConstraint=eastwest;fontSize=12;whiteSpace=wrap;html=1;" vertex="1" parent="NmSjLMG6qjfpHUq6LV9r-59">
          <mxGeometry y="116" width="160" height="30" as="geometry" />
        </mxCell>
        <mxCell id="NmSjLMG6qjfpHUq6LV9r-64" value="comment_id" style="text;strokeColor=none;fillColor=none;spacingLeft=4;spacingRight=4;overflow=hidden;rotatable=0;points=[[0,0.5],[1,0.5]];portConstraint=eastwest;fontSize=12;whiteSpace=wrap;html=1;" vertex="1" parent="NmSjLMG6qjfpHUq6LV9r-59">
          <mxGeometry y="146" width="160" height="30" as="geometry" />
        </mxCell>
        <mxCell id="NmSjLMG6qjfpHUq6LV9r-65" value="Award Type" style="swimlane;fontStyle=0;childLayout=stackLayout;horizontal=1;startSize=26;horizontalStack=0;resizeParent=1;resizeParentMax=0;resizeLast=0;collapsible=1;marginBottom=0;align=center;fontSize=14;" vertex="1" parent="1">
          <mxGeometry x="855" y="1680" width="160" height="86" as="geometry" />
        </mxCell>
        <mxCell id="NmSjLMG6qjfpHUq6LV9r-66" value="*award_id" style="text;strokeColor=none;fillColor=none;spacingLeft=4;spacingRight=4;overflow=hidden;rotatable=0;points=[[0,0.5],[1,0.5]];portConstraint=eastwest;fontSize=12;whiteSpace=wrap;html=1;" vertex="1" parent="NmSjLMG6qjfpHUq6LV9r-65">
          <mxGeometry y="26" width="160" height="30" as="geometry" />
        </mxCell>
        <mxCell id="NmSjLMG6qjfpHUq6LV9r-67" value="name" style="text;strokeColor=none;fillColor=none;spacingLeft=4;spacingRight=4;overflow=hidden;rotatable=0;points=[[0,0.5],[1,0.5]];portConstraint=eastwest;fontSize=12;whiteSpace=wrap;html=1;" vertex="1" parent="NmSjLMG6qjfpHUq6LV9r-65">
          <mxGeometry y="56" width="160" height="30" as="geometry" />
        </mxCell>
        <mxCell id="NmSjLMG6qjfpHUq6LV9r-68" value="Topic" style="swimlane;fontStyle=0;childLayout=stackLayout;horizontal=1;startSize=26;horizontalStack=0;resizeParent=1;resizeParentMax=0;resizeLast=0;collapsible=1;marginBottom=0;align=center;fontSize=14;" vertex="1" parent="1">
          <mxGeometry x="855" y="990" width="160" height="116" as="geometry" />
        </mxCell>
        <mxCell id="NmSjLMG6qjfpHUq6LV9r-69" value="*post_id" style="text;strokeColor=none;fillColor=none;spacingLeft=4;spacingRight=4;overflow=hidden;rotatable=0;points=[[0,0.5],[1,0.5]];portConstraint=eastwest;fontSize=12;whiteSpace=wrap;html=1;" vertex="1" parent="NmSjLMG6qjfpHUq6LV9r-68">
          <mxGeometry y="26" width="160" height="30" as="geometry" />
        </mxCell>
        <mxCell id="NmSjLMG6qjfpHUq6LV9r-70" value="title" style="text;strokeColor=none;fillColor=none;spacingLeft=4;spacingRight=4;overflow=hidden;rotatable=0;points=[[0,0.5],[1,0.5]];portConstraint=eastwest;fontSize=12;whiteSpace=wrap;html=1;" vertex="1" parent="NmSjLMG6qjfpHUq6LV9r-68">
          <mxGeometry y="56" width="160" height="30" as="geometry" />
        </mxCell>
        <mxCell id="NmSjLMG6qjfpHUq6LV9r-71" value="description" style="text;strokeColor=none;fillColor=none;spacingLeft=4;spacingRight=4;overflow=hidden;rotatable=0;points=[[0,0.5],[1,0.5]];portConstraint=eastwest;fontSize=12;whiteSpace=wrap;html=1;" vertex="1" parent="NmSjLMG6qjfpHUq6LV9r-68">
          <mxGeometry y="86" width="160" height="30" as="geometry" />
        </mxCell>
        <mxCell id="NmSjLMG6qjfpHUq6LV9r-72" value="Country" style="swimlane;fontStyle=0;childLayout=stackLayout;horizontal=1;startSize=26;horizontalStack=0;resizeParent=1;resizeParentMax=0;resizeLast=0;collapsible=1;marginBottom=0;align=center;fontSize=14;" vertex="1" parent="1">
          <mxGeometry x="-375" y="1420" width="160" height="116" as="geometry" />
        </mxCell>
        <mxCell id="NmSjLMG6qjfpHUq6LV9r-73" value="*country_id" style="text;strokeColor=none;fillColor=none;spacingLeft=4;spacingRight=4;overflow=hidden;rotatable=0;points=[[0,0.5],[1,0.5]];portConstraint=eastwest;fontSize=12;whiteSpace=wrap;html=1;" vertex="1" parent="NmSjLMG6qjfpHUq6LV9r-72">
          <mxGeometry y="26" width="160" height="30" as="geometry" />
        </mxCell>
        <mxCell id="NmSjLMG6qjfpHUq6LV9r-74" value="name" style="text;strokeColor=none;fillColor=none;spacingLeft=4;spacingRight=4;overflow=hidden;rotatable=0;points=[[0,0.5],[1,0.5]];portConstraint=eastwest;fontSize=12;whiteSpace=wrap;html=1;" vertex="1" parent="NmSjLMG6qjfpHUq6LV9r-72">
          <mxGeometry y="56" width="160" height="30" as="geometry" />
        </mxCell>
        <mxCell id="NmSjLMG6qjfpHUq6LV9r-75" value="iso" style="text;strokeColor=none;fillColor=none;spacingLeft=4;spacingRight=4;overflow=hidden;rotatable=0;points=[[0,0.5],[1,0.5]];portConstraint=eastwest;fontSize=12;whiteSpace=wrap;html=1;" vertex="1" parent="NmSjLMG6qjfpHUq6LV9r-72">
          <mxGeometry y="86" width="160" height="30" as="geometry" />
        </mxCell>
        <mxCell id="NmSjLMG6qjfpHUq6LV9r-76" style="edgeStyle=orthogonalEdgeStyle;rounded=0;orthogonalLoop=1;jettySize=auto;html=1;exitX=1;exitY=0.5;exitDx=0;exitDy=0;entryX=0;entryY=0.5;entryDx=0;entryDy=0;endArrow=ERmandOne;endFill=0;startArrow=ERzeroToMany;startFill=0;" edge="1" parent="1" source="NmSjLMG6qjfpHUq6LV9r-78" target="NmSjLMG6qjfpHUq6LV9r-22">
          <mxGeometry relative="1" as="geometry">
            <Array as="points">
              <mxPoint x="-155" y="1321" />
              <mxPoint x="-155" y="1080" />
              <mxPoint x="395" y="1080" />
            </Array>
          </mxGeometry>
        </mxCell>
        <mxCell id="NmSjLMG6qjfpHUq6LV9r-77" value="Moderator" style="swimlane;fontStyle=0;childLayout=stackLayout;horizontal=1;startSize=26;horizontalStack=0;resizeParent=1;resizeParentMax=0;resizeLast=0;collapsible=1;marginBottom=0;align=center;fontSize=14;" vertex="1" parent="1">
          <mxGeometry x="-375" y="1280" width="160" height="116" as="geometry" />
        </mxCell>
        <mxCell id="NmSjLMG6qjfpHUq6LV9r-78" value="*moderator_id" style="text;strokeColor=none;fillColor=none;spacingLeft=4;spacingRight=4;overflow=hidden;rotatable=0;points=[[0,0.5],[1,0.5]];portConstraint=eastwest;fontSize=12;whiteSpace=wrap;html=1;" vertex="1" parent="NmSjLMG6qjfpHUq6LV9r-77">
          <mxGeometry y="26" width="160" height="30" as="geometry" />
        </mxCell>
        <mxCell id="NmSjLMG6qjfpHUq6LV9r-79" value="user_id" style="text;strokeColor=none;fillColor=none;spacingLeft=4;spacingRight=4;overflow=hidden;rotatable=0;points=[[0,0.5],[1,0.5]];portConstraint=eastwest;fontSize=12;whiteSpace=wrap;html=1;" vertex="1" parent="NmSjLMG6qjfpHUq6LV9r-77">
          <mxGeometry y="56" width="160" height="30" as="geometry" />
        </mxCell>
        <mxCell id="NmSjLMG6qjfpHUq6LV9r-80" value="subreddit_id" style="text;strokeColor=none;fillColor=none;spacingLeft=4;spacingRight=4;overflow=hidden;rotatable=0;points=[[0,0.5],[1,0.5]];portConstraint=eastwest;fontSize=12;whiteSpace=wrap;html=1;" vertex="1" parent="NmSjLMG6qjfpHUq6LV9r-77">
          <mxGeometry y="86" width="160" height="30" as="geometry" />
        </mxCell>
        <mxCell id="NmSjLMG6qjfpHUq6LV9r-81" style="edgeStyle=orthogonalEdgeStyle;rounded=0;orthogonalLoop=1;jettySize=auto;html=1;exitX=1;exitY=0.5;exitDx=0;exitDy=0;entryX=0;entryY=0.5;entryDx=0;entryDy=0;startArrow=ERmandOne;startFill=0;endArrow=ERzeroToMany;endFill=0;" edge="1" parent="1" source="NmSjLMG6qjfpHUq6LV9r-6" target="NmSjLMG6qjfpHUq6LV9r-14">
          <mxGeometry relative="1" as="geometry">
            <Array as="points">
              <mxPoint x="235" y="1581" />
              <mxPoint x="235" y="1311" />
            </Array>
          </mxGeometry>
        </mxCell>
        <mxCell id="NmSjLMG6qjfpHUq6LV9r-82" style="edgeStyle=orthogonalEdgeStyle;rounded=0;orthogonalLoop=1;jettySize=auto;html=1;exitX=1;exitY=0.5;exitDx=0;exitDy=0;entryX=0;entryY=0.5;entryDx=0;entryDy=0;endArrow=ERzeroToMany;endFill=0;" edge="1" parent="1" source="NmSjLMG6qjfpHUq6LV9r-6" target="NmSjLMG6qjfpHUq6LV9r-24">
          <mxGeometry relative="1" as="geometry" />
        </mxCell>
        <mxCell id="NmSjLMG6qjfpHUq6LV9r-83" style="edgeStyle=orthogonalEdgeStyle;rounded=0;orthogonalLoop=1;jettySize=auto;html=1;exitX=1;exitY=0.5;exitDx=0;exitDy=0;entryX=0;entryY=0.5;entryDx=0;entryDy=0;endArrow=ERzeroToMany;endFill=0;" edge="1" parent="1" source="NmSjLMG6qjfpHUq6LV9r-6" target="NmSjLMG6qjfpHUq6LV9r-41">
          <mxGeometry relative="1" as="geometry" />
        </mxCell>
        <mxCell id="NmSjLMG6qjfpHUq6LV9r-84" style="edgeStyle=orthogonalEdgeStyle;rounded=0;orthogonalLoop=1;jettySize=auto;html=1;exitX=1;exitY=0.5;exitDx=0;exitDy=0;entryX=0;entryY=0.5;entryDx=0;entryDy=0;endArrow=ERzeroToMany;endFill=0;" edge="1" parent="1" source="NmSjLMG6qjfpHUq6LV9r-6" target="NmSjLMG6qjfpHUq6LV9r-55">
          <mxGeometry relative="1" as="geometry" />
        </mxCell>
        <mxCell id="NmSjLMG6qjfpHUq6LV9r-85" style="edgeStyle=orthogonalEdgeStyle;rounded=0;orthogonalLoop=1;jettySize=auto;html=1;exitX=1;exitY=0.5;exitDx=0;exitDy=0;entryX=0;entryY=0.5;entryDx=0;entryDy=0;startArrow=ERmandOne;startFill=0;endArrow=ERzeroToMany;endFill=0;" edge="1" parent="1" source="NmSjLMG6qjfpHUq6LV9r-24" target="NmSjLMG6qjfpHUq6LV9r-13">
          <mxGeometry relative="1" as="geometry" />
        </mxCell>
        <mxCell id="NmSjLMG6qjfpHUq6LV9r-86" style="edgeStyle=orthogonalEdgeStyle;rounded=0;orthogonalLoop=1;jettySize=auto;html=1;exitX=1;exitY=0.5;exitDx=0;exitDy=0;entryX=0;entryY=0.5;entryDx=0;entryDy=0;startArrow=ERzeroToMany;startFill=0;endArrow=ERmandOne;endFill=0;" edge="1" parent="1" source="NmSjLMG6qjfpHUq6LV9r-41" target="NmSjLMG6qjfpHUq6LV9r-15">
          <mxGeometry relative="1" as="geometry" />
        </mxCell>
        <mxCell id="NmSjLMG6qjfpHUq6LV9r-87" style="edgeStyle=orthogonalEdgeStyle;rounded=0;orthogonalLoop=1;jettySize=auto;html=1;exitX=1;exitY=0.5;exitDx=0;exitDy=0;entryX=0;entryY=0.5;entryDx=0;entryDy=0;startArrow=ERmandOne;startFill=0;endArrow=ERzeroToMany;endFill=0;" edge="1" parent="1" source="NmSjLMG6qjfpHUq6LV9r-74" target="NmSjLMG6qjfpHUq6LV9r-6">
          <mxGeometry relative="1" as="geometry">
            <Array as="points">
              <mxPoint x="-155" y="1491" />
              <mxPoint x="-155" y="1581" />
            </Array>
          </mxGeometry>
        </mxCell>
        <mxCell id="NmSjLMG6qjfpHUq6LV9r-88" style="edgeStyle=orthogonalEdgeStyle;rounded=0;orthogonalLoop=1;jettySize=auto;html=1;exitX=0;exitY=0.5;exitDx=0;exitDy=0;entryX=1;entryY=0.5;entryDx=0;entryDy=0;endArrow=ERzeroToMany;endFill=0;" edge="1" parent="1" source="NmSjLMG6qjfpHUq6LV9r-15" target="NmSjLMG6qjfpHUq6LV9r-55">
          <mxGeometry relative="1" as="geometry" />
        </mxCell>
        <mxCell id="NmSjLMG6qjfpHUq6LV9r-89" style="edgeStyle=orthogonalEdgeStyle;rounded=0;orthogonalLoop=1;jettySize=auto;html=1;exitX=1;exitY=0.5;exitDx=0;exitDy=0;endArrow=ERzeroToMany;endFill=0;entryX=0;entryY=0.5;entryDx=0;entryDy=0;" edge="1" parent="1" source="NmSjLMG6qjfpHUq6LV9r-6" target="NmSjLMG6qjfpHUq6LV9r-32">
          <mxGeometry relative="1" as="geometry">
            <mxPoint x="840" y="1930" as="targetPoint" />
            <Array as="points">
              <mxPoint x="235" y="1581" />
              <mxPoint x="235" y="1930" />
              <mxPoint x="810" y="1930" />
            </Array>
          </mxGeometry>
        </mxCell>
        <mxCell id="NmSjLMG6qjfpHUq6LV9r-90" style="edgeStyle=orthogonalEdgeStyle;rounded=0;orthogonalLoop=1;jettySize=auto;html=1;exitX=1;exitY=0.5;exitDx=0;exitDy=0;entryX=0;entryY=0.5;entryDx=0;entryDy=0;endArrow=ERzeroToMany;endFill=0;" edge="1" parent="1" source="NmSjLMG6qjfpHUq6LV9r-6" target="NmSjLMG6qjfpHUq6LV9r-61">
          <mxGeometry relative="1" as="geometry" />
        </mxCell>
        <mxCell id="NmSjLMG6qjfpHUq6LV9r-91" style="edgeStyle=orthogonalEdgeStyle;rounded=0;orthogonalLoop=1;jettySize=auto;html=1;exitX=1;exitY=0.5;exitDx=0;exitDy=0;endArrow=ERzeroToMany;endFill=0;entryX=0;entryY=0.5;entryDx=0;entryDy=0;" edge="1" parent="1" source="NmSjLMG6qjfpHUq6LV9r-6" target="NmSjLMG6qjfpHUq6LV9r-49">
          <mxGeometry relative="1" as="geometry">
            <mxPoint x="320" y="2040" as="targetPoint" />
            <Array as="points">
              <mxPoint x="235" y="1581" />
              <mxPoint x="235" y="2041" />
            </Array>
          </mxGeometry>
        </mxCell>
        <mxCell id="NmSjLMG6qjfpHUq6LV9r-92" style="edgeStyle=orthogonalEdgeStyle;rounded=0;orthogonalLoop=1;jettySize=auto;html=1;exitX=1;exitY=0.5;exitDx=0;exitDy=0;endArrow=ERmandOne;endFill=0;startArrow=ERzeroToMany;startFill=0;entryX=1;entryY=0.5;entryDx=0;entryDy=0;" edge="1" parent="1" source="NmSjLMG6qjfpHUq6LV9r-31" target="NmSjLMG6qjfpHUq6LV9r-15">
          <mxGeometry relative="1" as="geometry">
            <mxPoint x="1260" y="1450" as="targetPoint" />
            <Array as="points">
              <mxPoint x="1085" y="1901" />
              <mxPoint x="1085" y="1341" />
            </Array>
          </mxGeometry>
        </mxCell>
        <mxCell id="NmSjLMG6qjfpHUq6LV9r-93" style="edgeStyle=orthogonalEdgeStyle;rounded=0;orthogonalLoop=1;jettySize=auto;html=1;entryX=1;entryY=0.5;entryDx=0;entryDy=0;endArrow=ERzeroToMany;endFill=0;startArrow=ERmandOne;startFill=0;exitX=0;exitY=0.5;exitDx=0;exitDy=0;" edge="1" parent="1" source="NmSjLMG6qjfpHUq6LV9r-2" target="NmSjLMG6qjfpHUq6LV9r-79">
          <mxGeometry relative="1" as="geometry">
            <mxPoint x="-85" y="1370" as="sourcePoint" />
            <Array as="points">
              <mxPoint x="-155" y="1461" />
              <mxPoint x="-155" y="1351" />
            </Array>
          </mxGeometry>
        </mxCell>
        <mxCell id="NmSjLMG6qjfpHUq6LV9r-94" style="edgeStyle=orthogonalEdgeStyle;rounded=0;orthogonalLoop=1;jettySize=auto;html=1;entryX=0;entryY=0.5;entryDx=0;entryDy=0;endArrow=ERmandOne;endFill=0;startArrow=ERzeroToMany;startFill=0;exitX=1;exitY=0.5;exitDx=0;exitDy=0;" edge="1" parent="1" source="NmSjLMG6qjfpHUq6LV9r-62" target="NmSjLMG6qjfpHUq6LV9r-31">
          <mxGeometry relative="1" as="geometry">
            <mxPoint x="600" y="1901" as="sourcePoint" />
          </mxGeometry>
        </mxCell>
        <mxCell id="NmSjLMG6qjfpHUq6LV9r-95" style="edgeStyle=orthogonalEdgeStyle;rounded=0;orthogonalLoop=1;jettySize=auto;html=1;exitX=0;exitY=0.5;exitDx=0;exitDy=0;startArrow=ERmandOne;startFill=0;endArrow=ERzeroToMany;endFill=0;entryX=1;entryY=0.5;entryDx=0;entryDy=0;" edge="1" parent="1" source="NmSjLMG6qjfpHUq6LV9r-33" target="NmSjLMG6qjfpHUq6LV9r-49">
          <mxGeometry relative="1" as="geometry">
            <mxPoint x="610" y="2011" as="targetPoint" />
          </mxGeometry>
        </mxCell>
        <mxCell id="NmSjLMG6qjfpHUq6LV9r-96" style="edgeStyle=orthogonalEdgeStyle;rounded=0;orthogonalLoop=1;jettySize=auto;html=1;exitX=1;exitY=0.5;exitDx=0;exitDy=0;startArrow=ERzeroToMany;startFill=0;endArrow=none;endFill=0;entryX=0;entryY=0.5;entryDx=0;entryDy=0;" edge="1" parent="1" source="NmSjLMG6qjfpHUq6LV9r-56" target="NmSjLMG6qjfpHUq6LV9r-66">
          <mxGeometry relative="1" as="geometry">
            <mxPoint x="810" y="1651" as="targetPoint" />
          </mxGeometry>
        </mxCell>
        <mxCell id="NmSjLMG6qjfpHUq6LV9r-97" style="edgeStyle=orthogonalEdgeStyle;rounded=0;orthogonalLoop=1;jettySize=auto;html=1;exitX=1;exitY=0.5;exitDx=0;exitDy=0;startArrow=ERzeroToMany;startFill=0;endArrow=ERmandOne;endFill=0;entryX=0;entryY=0.5;entryDx=0;entryDy=0;" edge="1" parent="1" source="NmSjLMG6qjfpHUq6LV9r-60" target="NmSjLMG6qjfpHUq6LV9r-66">
          <mxGeometry relative="1" as="geometry">
            <mxPoint x="830" y="1710" as="targetPoint" />
            <Array as="points">
              <mxPoint x="705" y="1787" />
              <mxPoint x="705" y="1720" />
              <mxPoint x="810" y="1720" />
            </Array>
          </mxGeometry>
        </mxCell>
        <mxCell id="NmSjLMG6qjfpHUq6LV9r-98" value="Follow" style="swimlane;fontStyle=0;childLayout=stackLayout;horizontal=1;startSize=26;horizontalStack=0;resizeParent=1;resizeParentMax=0;resizeLast=0;collapsible=1;marginBottom=0;align=center;fontSize=14;" vertex="1" parent="1">
          <mxGeometry x="-375" y="1570" width="160" height="146" as="geometry" />
        </mxCell>
        <mxCell id="NmSjLMG6qjfpHUq6LV9r-99" value="*follow_id" style="text;strokeColor=none;fillColor=none;spacingLeft=4;spacingRight=4;overflow=hidden;rotatable=0;points=[[0,0.5],[1,0.5]];portConstraint=eastwest;fontSize=12;whiteSpace=wrap;html=1;" vertex="1" parent="NmSjLMG6qjfpHUq6LV9r-98">
          <mxGeometry y="26" width="160" height="30" as="geometry" />
        </mxCell>
        <mxCell id="NmSjLMG6qjfpHUq6LV9r-100" value="created_at" style="text;strokeColor=none;fillColor=none;spacingLeft=4;spacingRight=4;overflow=hidden;rotatable=0;points=[[0,0.5],[1,0.5]];portConstraint=eastwest;fontSize=12;whiteSpace=wrap;html=1;" vertex="1" parent="NmSjLMG6qjfpHUq6LV9r-98">
          <mxGeometry y="56" width="160" height="30" as="geometry" />
        </mxCell>
        <mxCell id="NmSjLMG6qjfpHUq6LV9r-101" value="follower_id" style="text;strokeColor=none;fillColor=none;spacingLeft=4;spacingRight=4;overflow=hidden;rotatable=0;points=[[0,0.5],[1,0.5]];portConstraint=eastwest;fontSize=12;whiteSpace=wrap;html=1;" vertex="1" parent="NmSjLMG6qjfpHUq6LV9r-98">
          <mxGeometry y="86" width="160" height="30" as="geometry" />
        </mxCell>
        <mxCell id="NmSjLMG6qjfpHUq6LV9r-102" value="followed_id" style="text;strokeColor=none;fillColor=none;spacingLeft=4;spacingRight=4;overflow=hidden;rotatable=0;points=[[0,0.5],[1,0.5]];portConstraint=eastwest;fontSize=12;whiteSpace=wrap;html=1;" vertex="1" parent="NmSjLMG6qjfpHUq6LV9r-98">
          <mxGeometry y="116" width="160" height="30" as="geometry" />
        </mxCell>
        <mxCell id="NmSjLMG6qjfpHUq6LV9r-103" value="Message" style="swimlane;fontStyle=0;childLayout=stackLayout;horizontal=1;startSize=26;horizontalStack=0;resizeParent=1;resizeParentMax=0;resizeLast=0;collapsible=1;marginBottom=0;align=center;fontSize=14;" vertex="1" parent="1">
          <mxGeometry x="-375" y="1740" width="160" height="176" as="geometry" />
        </mxCell>
        <mxCell id="NmSjLMG6qjfpHUq6LV9r-104" value="message_id" style="text;strokeColor=none;fillColor=none;spacingLeft=4;spacingRight=4;overflow=hidden;rotatable=0;points=[[0,0.5],[1,0.5]];portConstraint=eastwest;fontSize=12;whiteSpace=wrap;html=1;" vertex="1" parent="NmSjLMG6qjfpHUq6LV9r-103">
          <mxGeometry y="26" width="160" height="30" as="geometry" />
        </mxCell>
        <mxCell id="NmSjLMG6qjfpHUq6LV9r-105" value="text" style="text;strokeColor=none;fillColor=none;spacingLeft=4;spacingRight=4;overflow=hidden;rotatable=0;points=[[0,0.5],[1,0.5]];portConstraint=eastwest;fontSize=12;whiteSpace=wrap;html=1;" vertex="1" parent="NmSjLMG6qjfpHUq6LV9r-103">
          <mxGeometry y="56" width="160" height="30" as="geometry" />
        </mxCell>
        <mxCell id="NmSjLMG6qjfpHUq6LV9r-106" value="created_at" style="text;strokeColor=none;fillColor=none;spacingLeft=4;spacingRight=4;overflow=hidden;rotatable=0;points=[[0,0.5],[1,0.5]];portConstraint=eastwest;fontSize=12;whiteSpace=wrap;html=1;" vertex="1" parent="NmSjLMG6qjfpHUq6LV9r-103">
          <mxGeometry y="86" width="160" height="30" as="geometry" />
        </mxCell>
        <mxCell id="NmSjLMG6qjfpHUq6LV9r-107" value="sender_id" style="text;strokeColor=none;fillColor=none;spacingLeft=4;spacingRight=4;overflow=hidden;rotatable=0;points=[[0,0.5],[1,0.5]];portConstraint=eastwest;fontSize=12;whiteSpace=wrap;html=1;" vertex="1" parent="NmSjLMG6qjfpHUq6LV9r-103">
          <mxGeometry y="116" width="160" height="30" as="geometry" />
        </mxCell>
        <mxCell id="NmSjLMG6qjfpHUq6LV9r-108" value="receiver_id" style="text;strokeColor=none;fillColor=none;spacingLeft=4;spacingRight=4;overflow=hidden;rotatable=0;points=[[0,0.5],[1,0.5]];portConstraint=eastwest;fontSize=12;whiteSpace=wrap;html=1;" vertex="1" parent="NmSjLMG6qjfpHUq6LV9r-103">
          <mxGeometry y="146" width="160" height="30" as="geometry" />
        </mxCell>
        <mxCell id="NmSjLMG6qjfpHUq6LV9r-109" style="edgeStyle=orthogonalEdgeStyle;rounded=0;orthogonalLoop=1;jettySize=auto;html=1;exitX=0;exitY=0.5;exitDx=0;exitDy=0;entryX=1;entryY=0.5;entryDx=0;entryDy=0;endArrow=ERzeroToMany;endFill=0;startArrow=ERmandOne;startFill=0;" edge="1" parent="1" source="NmSjLMG6qjfpHUq6LV9r-8" target="NmSjLMG6qjfpHUq6LV9r-101">
          <mxGeometry relative="1" as="geometry">
            <Array as="points">
              <mxPoint x="-155" y="1641" />
              <mxPoint x="-155" y="1671" />
            </Array>
          </mxGeometry>
        </mxCell>
        <mxCell id="NmSjLMG6qjfpHUq6LV9r-110" style="edgeStyle=orthogonalEdgeStyle;rounded=0;orthogonalLoop=1;jettySize=auto;html=1;exitX=1;exitY=0.5;exitDx=0;exitDy=0;entryX=-0.004;entryY=-0.023;entryDx=0;entryDy=0;endArrow=ERmandOne;endFill=0;entryPerimeter=0;startArrow=ERzeroToMany;startFill=0;" edge="1" parent="1" source="NmSjLMG6qjfpHUq6LV9r-102" target="NmSjLMG6qjfpHUq6LV9r-9">
          <mxGeometry relative="1" as="geometry">
            <Array as="points">
              <mxPoint x="-135" y="1701" />
              <mxPoint x="-135" y="1655" />
            </Array>
          </mxGeometry>
        </mxCell>
        <mxCell id="NmSjLMG6qjfpHUq6LV9r-111" style="edgeStyle=orthogonalEdgeStyle;rounded=0;orthogonalLoop=1;jettySize=auto;html=1;exitX=1;exitY=0.5;exitDx=0;exitDy=0;entryX=0;entryY=0.5;entryDx=0;entryDy=0;endArrow=ERmandOne;endFill=0;startArrow=ERzeroToMany;startFill=0;" edge="1" parent="1" source="NmSjLMG6qjfpHUq6LV9r-108" target="NmSjLMG6qjfpHUq6LV9r-11">
          <mxGeometry relative="1" as="geometry">
            <Array as="points">
              <mxPoint x="-135" y="1901" />
              <mxPoint x="-135" y="1731" />
            </Array>
          </mxGeometry>
        </mxCell>
        <mxCell id="NmSjLMG6qjfpHUq6LV9r-112" style="edgeStyle=orthogonalEdgeStyle;rounded=0;orthogonalLoop=1;jettySize=auto;html=1;exitX=1;exitY=0.5;exitDx=0;exitDy=0;entryX=-0.004;entryY=0.047;entryDx=0;entryDy=0;entryPerimeter=0;endArrow=ERmandOne;endFill=0;startArrow=ERzeroToMany;startFill=0;" edge="1" parent="1" source="NmSjLMG6qjfpHUq6LV9r-107" target="NmSjLMG6qjfpHUq6LV9r-11">
          <mxGeometry relative="1" as="geometry">
            <Array as="points">
              <mxPoint x="-155" y="1871" />
              <mxPoint x="-155" y="1717" />
            </Array>
          </mxGeometry>
        </mxCell>
        <mxCell id="NmSjLMG6qjfpHUq6LV9r-113" value="Membership" style="swimlane;fontStyle=0;childLayout=stackLayout;horizontal=1;startSize=26;horizontalStack=0;resizeParent=1;resizeParentMax=0;resizeLast=0;collapsible=1;marginBottom=0;align=center;fontSize=14;" vertex="1" parent="1">
          <mxGeometry x="-85" y="1210" width="160" height="146" as="geometry" />
        </mxCell>
        <mxCell id="NmSjLMG6qjfpHUq6LV9r-114" value="*membership_id" style="text;strokeColor=none;fillColor=none;spacingLeft=4;spacingRight=4;overflow=hidden;rotatable=0;points=[[0,0.5],[1,0.5]];portConstraint=eastwest;fontSize=12;whiteSpace=wrap;html=1;" vertex="1" parent="NmSjLMG6qjfpHUq6LV9r-113">
          <mxGeometry y="26" width="160" height="30" as="geometry" />
        </mxCell>
        <mxCell id="NmSjLMG6qjfpHUq6LV9r-115" value="created_at" style="text;strokeColor=none;fillColor=none;spacingLeft=4;spacingRight=4;overflow=hidden;rotatable=0;points=[[0,0.5],[1,0.5]];portConstraint=eastwest;fontSize=12;whiteSpace=wrap;html=1;" vertex="1" parent="NmSjLMG6qjfpHUq6LV9r-113">
          <mxGeometry y="56" width="160" height="30" as="geometry" />
        </mxCell>
        <mxCell id="NmSjLMG6qjfpHUq6LV9r-116" value="user_id" style="text;strokeColor=none;fillColor=none;spacingLeft=4;spacingRight=4;overflow=hidden;rotatable=0;points=[[0,0.5],[1,0.5]];portConstraint=eastwest;fontSize=12;whiteSpace=wrap;html=1;" vertex="1" parent="NmSjLMG6qjfpHUq6LV9r-113">
          <mxGeometry y="86" width="160" height="30" as="geometry" />
        </mxCell>
        <mxCell id="NmSjLMG6qjfpHUq6LV9r-117" value="subreddit_id" style="text;strokeColor=none;fillColor=none;spacingLeft=4;spacingRight=4;overflow=hidden;rotatable=0;points=[[0,0.5],[1,0.5]];portConstraint=eastwest;fontSize=12;whiteSpace=wrap;html=1;" vertex="1" parent="NmSjLMG6qjfpHUq6LV9r-113">
          <mxGeometry y="116" width="160" height="30" as="geometry" />
        </mxCell>
        <mxCell id="NmSjLMG6qjfpHUq6LV9r-118" style="edgeStyle=orthogonalEdgeStyle;rounded=0;orthogonalLoop=1;jettySize=auto;html=1;exitX=1;exitY=0.5;exitDx=0;exitDy=0;entryX=1;entryY=0.5;entryDx=0;entryDy=0;startArrow=ERmandOne;startFill=0;endArrow=ERzeroToMany;endFill=0;" edge="1" parent="1" source="NmSjLMG6qjfpHUq6LV9r-2" target="NmSjLMG6qjfpHUq6LV9r-116">
          <mxGeometry relative="1" as="geometry">
            <Array as="points">
              <mxPoint x="145" y="1461" />
              <mxPoint x="145" y="1311" />
            </Array>
          </mxGeometry>
        </mxCell>
        <mxCell id="NmSjLMG6qjfpHUq6LV9r-119" style="edgeStyle=orthogonalEdgeStyle;rounded=0;orthogonalLoop=1;jettySize=auto;html=1;exitX=1;exitY=0.5;exitDx=0;exitDy=0;entryX=0;entryY=0.5;entryDx=0;entryDy=0;endArrow=ERmandOne;endFill=0;startArrow=ERzeroToMany;startFill=0;" edge="1" parent="1" source="NmSjLMG6qjfpHUq6LV9r-115" target="NmSjLMG6qjfpHUq6LV9r-23">
          <mxGeometry relative="1" as="geometry">
            <Array as="points">
              <mxPoint x="145" y="1281" />
              <mxPoint x="145" y="1111" />
            </Array>
          </mxGeometry>
        </mxCell>
        <mxCell id="NmSjLMG6qjfpHUq6LV9r-120" value="Subreddit_Topic" style="swimlane;fontStyle=0;childLayout=stackLayout;horizontal=1;startSize=26;horizontalStack=0;resizeParent=1;resizeParentMax=0;resizeLast=0;collapsible=1;marginBottom=0;align=center;fontSize=14;" vertex="1" parent="1">
          <mxGeometry x="645" y="990" width="160" height="116" as="geometry" />
        </mxCell>
        <mxCell id="NmSjLMG6qjfpHUq6LV9r-121" value="*subreddit_topic_id" style="text;strokeColor=none;fillColor=none;spacingLeft=4;spacingRight=4;overflow=hidden;rotatable=0;points=[[0,0.5],[1,0.5]];portConstraint=eastwest;fontSize=12;whiteSpace=wrap;html=1;" vertex="1" parent="NmSjLMG6qjfpHUq6LV9r-120">
          <mxGeometry y="26" width="160" height="30" as="geometry" />
        </mxCell>
        <mxCell id="NmSjLMG6qjfpHUq6LV9r-122" value="topic_id" style="text;strokeColor=none;fillColor=none;spacingLeft=4;spacingRight=4;overflow=hidden;rotatable=0;points=[[0,0.5],[1,0.5]];portConstraint=eastwest;fontSize=12;whiteSpace=wrap;html=1;" vertex="1" parent="NmSjLMG6qjfpHUq6LV9r-120">
          <mxGeometry y="56" width="160" height="30" as="geometry" />
        </mxCell>
        <mxCell id="NmSjLMG6qjfpHUq6LV9r-123" value="subreddit_id" style="text;strokeColor=none;fillColor=none;spacingLeft=4;spacingRight=4;overflow=hidden;rotatable=0;points=[[0,0.5],[1,0.5]];portConstraint=eastwest;fontSize=12;whiteSpace=wrap;html=1;" vertex="1" parent="NmSjLMG6qjfpHUq6LV9r-120">
          <mxGeometry y="86" width="160" height="30" as="geometry" />
        </mxCell>
        <mxCell id="NmSjLMG6qjfpHUq6LV9r-124" style="edgeStyle=orthogonalEdgeStyle;rounded=0;orthogonalLoop=1;jettySize=auto;html=1;exitX=1;exitY=0.5;exitDx=0;exitDy=0;entryX=0;entryY=0.5;entryDx=0;entryDy=0;startArrow=ERmandOne;startFill=0;endArrow=ERzeroToMany;endFill=0;" edge="1" parent="1" source="NmSjLMG6qjfpHUq6LV9r-23" target="NmSjLMG6qjfpHUq6LV9r-122">
          <mxGeometry relative="1" as="geometry" />
        </mxCell>
        <mxCell id="NmSjLMG6qjfpHUq6LV9r-125" style="edgeStyle=orthogonalEdgeStyle;rounded=0;orthogonalLoop=1;jettySize=auto;html=1;exitX=1;exitY=0.5;exitDx=0;exitDy=0;entryX=0;entryY=0.5;entryDx=0;entryDy=0;endArrow=ERmandOne;endFill=0;startArrow=ERzeroToMany;startFill=0;" edge="1" parent="1" source="NmSjLMG6qjfpHUq6LV9r-122" target="NmSjLMG6qjfpHUq6LV9r-70">
          <mxGeometry relative="1" as="geometry" />
        </mxCell>
        <mxCell id="NmSjLMG6qjfpHUq6LV9r-126" value="Post_Topic" style="swimlane;fontStyle=0;childLayout=stackLayout;horizontal=1;startSize=26;horizontalStack=0;resizeParent=1;resizeParentMax=0;resizeLast=0;collapsible=1;marginBottom=0;align=center;fontSize=14;" vertex="1" parent="1">
          <mxGeometry x="1065" y="1140" width="160" height="116" as="geometry" />
        </mxCell>
        <mxCell id="NmSjLMG6qjfpHUq6LV9r-127" value="*post_topic_id" style="text;strokeColor=none;fillColor=none;spacingLeft=4;spacingRight=4;overflow=hidden;rotatable=0;points=[[0,0.5],[1,0.5]];portConstraint=eastwest;fontSize=12;whiteSpace=wrap;html=1;" vertex="1" parent="NmSjLMG6qjfpHUq6LV9r-126">
          <mxGeometry y="26" width="160" height="30" as="geometry" />
        </mxCell>
        <mxCell id="NmSjLMG6qjfpHUq6LV9r-128" value="topic_id" style="text;strokeColor=none;fillColor=none;spacingLeft=4;spacingRight=4;overflow=hidden;rotatable=0;points=[[0,0.5],[1,0.5]];portConstraint=eastwest;fontSize=12;whiteSpace=wrap;html=1;" vertex="1" parent="NmSjLMG6qjfpHUq6LV9r-126">
          <mxGeometry y="56" width="160" height="30" as="geometry" />
        </mxCell>
        <mxCell id="NmSjLMG6qjfpHUq6LV9r-129" value="post_id" style="text;strokeColor=none;fillColor=none;spacingLeft=4;spacingRight=4;overflow=hidden;rotatable=0;points=[[0,0.5],[1,0.5]];portConstraint=eastwest;fontSize=12;whiteSpace=wrap;html=1;" vertex="1" parent="NmSjLMG6qjfpHUq6LV9r-126">
          <mxGeometry y="86" width="160" height="30" as="geometry" />
        </mxCell>
        <mxCell id="NmSjLMG6qjfpHUq6LV9r-130" style="edgeStyle=orthogonalEdgeStyle;rounded=0;orthogonalLoop=1;jettySize=auto;html=1;entryX=0.5;entryY=0;entryDx=0;entryDy=0;endArrow=ERzeroToMany;endFill=0;startArrow=ERmandOne;startFill=0;" edge="1" parent="1" source="NmSjLMG6qjfpHUq6LV9r-70" target="NmSjLMG6qjfpHUq6LV9r-126">
          <mxGeometry relative="1" as="geometry" />
        </mxCell>
        <mxCell id="NmSjLMG6qjfpHUq6LV9r-131" style="edgeStyle=orthogonalEdgeStyle;rounded=0;orthogonalLoop=1;jettySize=auto;html=1;exitX=1;exitY=0.5;exitDx=0;exitDy=0;entryX=0.493;entryY=1.012;entryDx=0;entryDy=0;entryPerimeter=0;endArrow=ERzeroToMany;endFill=0;startArrow=ERmandOne;startFill=0;" edge="1" parent="1" source="NmSjLMG6qjfpHUq6LV9r-14" target="NmSjLMG6qjfpHUq6LV9r-129">
          <mxGeometry relative="1" as="geometry" />
        </mxCell>
      </root>
    </mxGraphModel>
  </diagram>
</mxfile>
